<svg xmlns="http://www.w3.org/2000/svg" xmlns:xlink="http://www.w3.org/1999/xlink" width="65" height="64.43" viewBox="0 0 65 64.43">
  <defs>
    <clipPath id="clip-Instagram-icon">
      <rect width="65" height="64.43"/>
    </clipPath>
  </defs>
  <g id="Instagram-icon" clip-path="url(#clip-Instagram-icon)">
    <g id="Gruppe_15" data-name="Gruppe 15" transform="translate(-1174.415 -162.554)">
      <g id="Gruppe_7" data-name="Gruppe 7" transform="translate(1174.415 162.554)">
        <g id="Gruppe_6" data-name="Gruppe 6" transform="translate(0 0)">
          <g id="g118">
            <path id="path120" d="M4.09.794C-.365.794-4.82.709-9.27.814c-6.954.163-11.231,3.421-12.5,9.41a19.375,19.375,0,0,0-.474,3.88c-.041,8.431-.154,16.866.018,25.294.171,8.387,4.412,12.872,12.5,13.169,9.138.336,18.292.308,27.43.006,6.739-.223,10.744-3.467,12.032-9.291a15.145,15.145,0,0,0,.454-3.166c.049-9.613.576-19.238-.291-28.832-.514-5.684-4.322-9.4-9.985-10.172C14.657.388,9.364.9,4.09.794M-28.435,11.74c.57-2.971,1.1-5.952,2.719-8.594,3.694-6.027,9.468-8.341,16.125-8.5q13.618-.334,27.251,0c6.164.149,11.652,2.179,15.405,7.522a19.948,19.948,0,0,1,3.378,11.449c.133,8.727.194,17.459-.008,26.183-.162,7.026-2.6,13.021-9.183,16.595a20.78,20.78,0,0,1-9.77,2.405c-8.965.1-17.935.191-26.9-.014-6.724-.154-12.567-2.423-16.3-8.513-1.62-2.641-2.15-5.625-2.721-8.6Z" transform="translate(28.435 5.521)" fill="#fff"/>
          </g>
          <g id="g122" transform="translate(15.328 15.246)">
            <path id="path124" d="M3.879,2.368A10.751,10.751,0,0,0-6.857-8.314,10.762,10.762,0,0,0-17.645,2.315,10.754,10.754,0,0,0-6.91,13,10.76,10.76,0,0,0,3.879,2.368m6.343.084A17.146,17.146,0,0,1-6.812,19.324,17.094,17.094,0,0,1-23.987,2.231,17.126,17.126,0,0,1-6.773-14.64,17.12,17.12,0,0,1,10.222,2.451" transform="translate(23.987 14.643)" fill="#fff"/>
          </g>
          <g id="g126" transform="translate(45.554 11.087)">
            <path id="path128" d="M.576,0A4.14,4.14,0,0,1,4.75,4.086,4.184,4.184,0,0,1,.7,8.132,4.171,4.171,0,0,1-3.56,4.123,4.109,4.109,0,0,1,.576,0" transform="translate(3.561 0)" fill="#fff"/>
          </g>
        </g>
      </g>
    </g>
  </g>
</svg>
