<svg xmlns="http://www.w3.org/2000/svg" xmlns:xlink="http://www.w3.org/1999/xlink" width="112.36" height="30.8" viewBox="0 0 112.36 30.8">
  <defs>
    <clipPath id="clip-Lucito_Logo">
      <rect width="112.36" height="30.8"/>
    </clipPath>
  </defs>
  <g id="Lucito_Logo" data-name="Lucito Logo" clip-path="url(#clip-Lucito_Logo)">
    <path id="Pfad_1" data-name="Pfad 1" d="M3.08-27.88V0h13.4V-2.96H6.72V-27.88ZM39.8-21.92H36.16V-9.88c0,4.72-2.52,7.04-6.28,7.04-3.68,0-6.12-2.28-6.12-6.72V-21.92h-3.6V-9.08c0,6.28,3.96,9.4,9,9.4a8.058,8.058,0,0,0,7-3.56V0H39.8ZM44.6-11C44.6-4.04,49.04.36,55.28.36c5.44,0,9-3.04,10.12-7.4H61.48c-.8,2.76-2.96,4.32-6.2,4.32-4,0-6.96-2.84-6.96-8.28,0-5.36,2.96-8.2,6.96-8.2,3.24,0,5.44,1.68,6.2,4.32H65.4c-1.12-4.6-4.68-7.4-10.12-7.4C49.04-22.28,44.6-17.88,44.6-11ZM70.24,0h3.64V-21.92H70.24Zm1.88-25.48a2.425,2.425,0,0,0,2.4-2.48,2.425,2.425,0,0,0-2.4-2.48,2.442,2.442,0,0,0-2.48,2.48A2.442,2.442,0,0,0,72.12-25.48ZM80.88-6c0,4.4,2.2,6,6.08,6h3.28V-3.08H87.56c-2.24,0-3.04-.76-3.04-2.92V-18.92h5.72v-3H84.52v-5.52H80.88v5.52H78.04v3h2.84Zm34.56-5c0-6.92-4.84-11.28-11.08-11.28-6.2,0-11.08,4.36-11.08,11.28C93.28-4.04,98,.36,104.2.36,110.44.36,115.44-4.04,115.44-11ZM97-11c0-5.52,3.48-8.12,7.32-8.12,3.76,0,7.4,2.6,7.4,8.12,0,5.56-3.72,8.16-7.52,8.16S97-5.44,97-11Z" transform="translate(-3.08 30.44)" fill="#d0d0d0"/>
  </g>
</svg>
