<svg xmlns="http://www.w3.org/2000/svg" xmlns:xlink="http://www.w3.org/1999/xlink" width="65" height="50.05" viewBox="0 0 65 50.05">
  <defs>
    <clipPath id="clip-YouTube-icon">
      <rect width="65" height="50.05"/>
    </clipPath>
  </defs>
  <g id="YouTube-icon" clip-path="url(#clip-YouTube-icon)">
    <g id="Gruppe_15" data-name="Gruppe 15" transform="translate(-1172.416 -164.353)">
      <g id="Gruppe_7" data-name="Gruppe 7" transform="translate(1172.415 164.353)">
        <path id="path38" d="M3.964,2.466-10.7,9.555a1.777,1.777,0,0,1-2.549-1.6V-5.9a1.775,1.775,0,0,1,2.52-1.613L3.935-.746A1.727,1.727,0,0,1,4.922.536.741.741,0,0,1,4.95.99a1.741,1.741,0,0,1-.986,1.477M-6.393-24.2c-31.941,0-32.5,2.84-32.5,25.025s.558,25.025,32.5,25.025,32.5-2.84,32.5-25.025S25.55-24.2-6.393-24.2" transform="translate(38.892 24.196)" fill="#fff"/>
      </g>
    </g>
  </g>
</svg>
